<svg width="120" height="120" viewBox="0 0 120 120" fill="none" xmlns="http://www.w3.org/2000/svg">
<g clip-path="url(#clip0_113_283)">
<path d="M112.188 60C112.188 89.25 88.1875 112.875 58.75 112.188C31.1875 111.562 7.875 87.75 7.8125 60.1875C7.8125 55.5 8.375 50.9375 9.5625 46.625C10.75 42.3125 15.9375 37.5 21.5 37.5H71.25" stroke="#B3B3B3" stroke-width="4" stroke-linecap="round" stroke-linejoin="round"/>
<path d="M59.75 71.625C64.4375 70.4375 66.4375 72.375 73.4375 63.1875C77 58.5 76.8125 53.1875 76.4375 49.625C76.1875 46.875 76.75 44.0625 78.25 41.6875L98.125 9.375" stroke="#B3B3B3" stroke-width="4" stroke-miterlimit="10" stroke-linecap="round"/>
<path d="M112.188 60C112.188 54.1875 111.25 48.5625 109.438 43.3125C107.625 38.0625 105 37.5 101.313 37.5H88.8125" stroke="#B3B3B3" stroke-width="4" stroke-miterlimit="10" stroke-linecap="round"/>
<path d="M31.25 31.625C29.75 29.125 26.5 28.25 24 29.75C21.5 31.25 20.625 34.5 22.125 37" stroke="#B3B3B3" stroke-width="4" stroke-miterlimit="10" stroke-linecap="round"/>
<path d="M41.875 30.9375C41.875 28 39.5 25.625 36.5625 25.625C33.625 25.625 31.25 28 31.25 30.9375" stroke="#B3B3B3" stroke-width="4" stroke-miterlimit="10" stroke-linecap="round"/>
<path d="M52.5 30.9375C52.5 28 50.125 25.625 47.1875 25.625C44.25 25.625 41.875 28 41.875 30.9375" stroke="#B3B3B3" stroke-width="4" stroke-miterlimit="10" stroke-linecap="round"/>
<path d="M61.75 36.3125C63.1875 33.75 62.3125 30.5 59.75 29.0625C57.1875 27.625 53.9375 28.5 52.5 31.0625" stroke="#B3B3B3" stroke-width="4" stroke-miterlimit="10" stroke-linecap="round"/>
<path d="M100.625 37.1875C100.625 34.25 98.25 31.875 95.3125 31.875C92.375 31.875 90 34.25 90 37.1875" stroke="#B3B3B3" stroke-width="4" stroke-miterlimit="10" stroke-linecap="round"/>
</g>
<defs>
<clipPath id="clip0_113_283">
<rect width="120" height="120" fill="white"/>
</clipPath>
</defs>
</svg>
